<mxfile host="app.diagrams.net" modified="2022-07-15T22:01:22.672Z" agent="5.0 (Windows)" etag="I60JeMA2sQI2bcZ9fhk0" version="20.1.1" type="github">
  <diagram id="tKfNWQqjAMQjT_kPpX8w" name="Page-1">
    <mxGraphModel dx="1424" dy="754" grid="1" gridSize="10" guides="1" tooltips="1" connect="1" arrows="1" fold="1" page="1" pageScale="1" pageWidth="827" pageHeight="1169" math="0" shadow="0">
      <root>
        <mxCell id="0" />
        <mxCell id="1" parent="0" />
        <mxCell id="qTg7LAOFMxC1c1jOQ5mH-7" style="edgeStyle=orthogonalEdgeStyle;rounded=0;orthogonalLoop=1;jettySize=auto;html=1;entryX=0.5;entryY=0;entryDx=0;entryDy=0;" edge="1" parent="1" source="qTg7LAOFMxC1c1jOQ5mH-1" target="qTg7LAOFMxC1c1jOQ5mH-4">
          <mxGeometry relative="1" as="geometry" />
        </mxCell>
        <mxCell id="qTg7LAOFMxC1c1jOQ5mH-1" value="Start" style="ellipse;whiteSpace=wrap;html=1;" vertex="1" parent="1">
          <mxGeometry x="249" y="180" width="90" height="50" as="geometry" />
        </mxCell>
        <mxCell id="qTg7LAOFMxC1c1jOQ5mH-2" value="End" style="ellipse;whiteSpace=wrap;html=1;" vertex="1" parent="1">
          <mxGeometry x="249" y="640" width="90" height="50" as="geometry" />
        </mxCell>
        <mxCell id="qTg7LAOFMxC1c1jOQ5mH-20" style="edgeStyle=orthogonalEdgeStyle;rounded=0;orthogonalLoop=1;jettySize=auto;html=1;entryX=0.5;entryY=0;entryDx=0;entryDy=0;" edge="1" parent="1" source="qTg7LAOFMxC1c1jOQ5mH-3" target="qTg7LAOFMxC1c1jOQ5mH-11">
          <mxGeometry relative="1" as="geometry" />
        </mxCell>
        <mxCell id="qTg7LAOFMxC1c1jOQ5mH-26" style="edgeStyle=orthogonalEdgeStyle;rounded=0;orthogonalLoop=1;jettySize=auto;html=1;entryX=0.5;entryY=0;entryDx=0;entryDy=0;" edge="1" parent="1" source="qTg7LAOFMxC1c1jOQ5mH-3" target="qTg7LAOFMxC1c1jOQ5mH-6">
          <mxGeometry relative="1" as="geometry" />
        </mxCell>
        <mxCell id="qTg7LAOFMxC1c1jOQ5mH-3" value="&lt;div&gt;is the wash different from&lt;/div&gt;&lt;div&gt;the membership tier?&lt;/div&gt;" style="rhombus;whiteSpace=wrap;html=1;" vertex="1" parent="1">
          <mxGeometry x="179" y="390" width="230" height="80" as="geometry" />
        </mxCell>
        <mxCell id="qTg7LAOFMxC1c1jOQ5mH-25" style="edgeStyle=orthogonalEdgeStyle;rounded=0;orthogonalLoop=1;jettySize=auto;html=1;" edge="1" parent="1" source="qTg7LAOFMxC1c1jOQ5mH-4" target="qTg7LAOFMxC1c1jOQ5mH-3">
          <mxGeometry relative="1" as="geometry" />
        </mxCell>
        <mxCell id="qTg7LAOFMxC1c1jOQ5mH-4" value="Prompt the VIP user if they want to choose a different wash" style="rounded=0;whiteSpace=wrap;html=1;" vertex="1" parent="1">
          <mxGeometry x="219" y="280" width="150" height="60" as="geometry" />
        </mxCell>
        <mxCell id="qTg7LAOFMxC1c1jOQ5mH-28" style="edgeStyle=orthogonalEdgeStyle;rounded=0;orthogonalLoop=1;jettySize=auto;html=1;entryX=1;entryY=0.5;entryDx=0;entryDy=0;" edge="1" parent="1" source="qTg7LAOFMxC1c1jOQ5mH-6" target="qTg7LAOFMxC1c1jOQ5mH-11">
          <mxGeometry relative="1" as="geometry" />
        </mxCell>
        <mxCell id="qTg7LAOFMxC1c1jOQ5mH-31" style="edgeStyle=orthogonalEdgeStyle;rounded=0;orthogonalLoop=1;jettySize=auto;html=1;entryX=1;entryY=0.5;entryDx=0;entryDy=0;" edge="1" parent="1" source="qTg7LAOFMxC1c1jOQ5mH-6" target="qTg7LAOFMxC1c1jOQ5mH-2">
          <mxGeometry relative="1" as="geometry">
            <Array as="points">
              <mxPoint x="534" y="665" />
            </Array>
          </mxGeometry>
        </mxCell>
        <mxCell id="qTg7LAOFMxC1c1jOQ5mH-6" value="&lt;div&gt;Has the VIP user exceeded&lt;/div&gt;&lt;div&gt;their 3-wash per day limit?&lt;/div&gt;" style="rhombus;whiteSpace=wrap;html=1;" vertex="1" parent="1">
          <mxGeometry x="419" y="500" width="230" height="100" as="geometry" />
        </mxCell>
        <mxCell id="qTg7LAOFMxC1c1jOQ5mH-10" value="Yes" style="text;html=1;align=center;verticalAlign=middle;resizable=0;points=[];autosize=1;strokeColor=none;fillColor=none;" vertex="1" parent="1">
          <mxGeometry x="294" y="476" width="40" height="30" as="geometry" />
        </mxCell>
        <mxCell id="qTg7LAOFMxC1c1jOQ5mH-32" style="edgeStyle=orthogonalEdgeStyle;rounded=0;orthogonalLoop=1;jettySize=auto;html=1;entryX=0.5;entryY=0;entryDx=0;entryDy=0;" edge="1" parent="1" source="qTg7LAOFMxC1c1jOQ5mH-11" target="qTg7LAOFMxC1c1jOQ5mH-2">
          <mxGeometry relative="1" as="geometry" />
        </mxCell>
        <mxCell id="qTg7LAOFMxC1c1jOQ5mH-11" value="Charge regular rate and proceed towards payment" style="rounded=0;whiteSpace=wrap;html=1;" vertex="1" parent="1">
          <mxGeometry x="234" y="520" width="120" height="60" as="geometry" />
        </mxCell>
        <mxCell id="qTg7LAOFMxC1c1jOQ5mH-27" value="No" style="text;html=1;align=center;verticalAlign=middle;resizable=0;points=[];autosize=1;strokeColor=none;fillColor=none;" vertex="1" parent="1">
          <mxGeometry x="402" y="397" width="40" height="30" as="geometry" />
        </mxCell>
        <mxCell id="qTg7LAOFMxC1c1jOQ5mH-29" value="Yes" style="text;html=1;align=center;verticalAlign=middle;resizable=0;points=[];autosize=1;strokeColor=none;fillColor=none;" vertex="1" parent="1">
          <mxGeometry x="379" y="520" width="40" height="30" as="geometry" />
        </mxCell>
        <mxCell id="qTg7LAOFMxC1c1jOQ5mH-30" value="No" style="text;html=1;align=center;verticalAlign=middle;resizable=0;points=[];autosize=1;strokeColor=none;fillColor=none;" vertex="1" parent="1">
          <mxGeometry x="539" y="600" width="40" height="30" as="geometry" />
        </mxCell>
        <mxCell id="qTg7LAOFMxC1c1jOQ5mH-33" value="&lt;div align=&quot;left&quot;&gt;&lt;font style=&quot;font-size: 14px;&quot;&gt;&lt;b&gt;Workshop 7 Logic 3&lt;br&gt;&lt;/b&gt;&lt;/font&gt;&lt;/div&gt;&lt;div align=&quot;left&quot;&gt;Full Name: Jeel Satishkumar Patel&lt;br&gt;Student ID: 167984210&lt;br&gt;&lt;/div&gt;&lt;div align=&quot;left&quot;&gt;Email: jpatel363@myseneca.ca&lt;/div&gt;&lt;div align=&quot;left&quot;&gt;Section: NEE&lt;br&gt;&lt;/div&gt;" style="text;html=1;align=left;verticalAlign=middle;resizable=0;points=[];autosize=1;strokeColor=none;fillColor=none;" vertex="1" parent="1">
          <mxGeometry x="78" y="40" width="230" height="90" as="geometry" />
        </mxCell>
      </root>
    </mxGraphModel>
  </diagram>
</mxfile>
